<?xml version="1.0" ?><!DOCTYPE svg  PUBLIC '-//W3C//DTD SVG 1.1//EN'  'http://www.w3.org/Graphics/SVG/1.1/DTD/svg11.dtd'><svg enable-background="new 0 0 150 150" height="150px" id="Layer_1" version="1.1" viewBox="0 0 150 150" width="150px" xml:space="preserve" xmlns="http://www.w3.org/2000/svg" xmlns:xlink="http://www.w3.org/1999/xlink"><g><circle cx="74.998" cy="75.013" fill="#6896CF" opacity="0.1" r="75"/><path d="M74.998,0.013v150c41.42,0,75-33.579,75-75.001C149.998,33.591,116.418,0.013,74.998,0.013z" fill="#6896CF" opacity="0.1"/><circle cx="74.998" cy="75.012" fill="#5993CE" r="65.488"/><path d="M74.998,9.524V140.5c36.168,0,65.488-29.319,65.488-65.488C140.486,38.845,111.166,9.524,74.998,9.524z" fill="#5287BD"/><g><path d="M9.584,72.085C9.541,73.056,9.51,74.03,9.51,75.012c0,36.169,29.32,65.488,65.488,65.488v-5.853    C39.811,134.647,11.115,106.895,9.584,72.085z" fill="#5287BD"/><path d="M140.412,72.085c-1.533,34.81-30.227,62.562-65.414,62.562v5.853c36.168,0,65.488-29.319,65.488-65.488    C140.486,74.03,140.455,73.056,140.412,72.085z" fill="#4B7CAD"/></g></g><path d="M43.836,111.23l-0.733-1.254l-12.18-20.902L30.67,88.65l0.246-0.424l28.005-48.499l0.733-1.269l0.737,1.26  l12.18,20.894l0.244,0.422l-0.244,0.425l-28.006,48.507L43.836,111.23z M118.591,92.27l-12.009,20.995l-0.239,0.431h-0.496H49.842  H48.38l0.729-1.268l12.004-20.996l0.248-0.426h0.49h56.008h1.459L118.591,92.27z M117.858,86.021l-24.186,0.101h-0.486l-0.246-0.425  L64.935,37.189l-0.732-1.266l1.459-0.002l24.188-0.098l0.491-0.003l0.247,0.419l28.004,48.507l0.733,1.263L117.858,86.021z" fill="#FFFFFF"/></svg>